<?xml version="1.0" encoding="utf-8"?>
<!-- Generator: Adobe Illustrator 25.4.1, SVG Export Plug-In . SVG Version: 6.00 Build 0)  -->
<svg version="1.1" id="레이어_1" xmlns="http://www.w3.org/2000/svg" xmlns:xlink="http://www.w3.org/1999/xlink" x="0px"
	 y="0px" viewBox="0 0 1920 5000" style="enable-background:new 0 0 1920 5000;" xml:space="preserve">
<g>
	<g>
		<path d="M1281.71,455.55c-177.2-14.33-355.72-8.52-531.58,17.65c-88.4,13.15-176.05,31.4-262.35,54.66
			c-42.52,11.46-84.73,24.12-126.51,38.04c-25.11,8.37-53.44,17.62-62.87,45.13c-8.17,23.85,0.56,50.96,15.56,70.17
			c18.16,23.26,46.46,33.54,74.97,37.11c39.68,4.97,80.64-1.07,120.3-3.63c47.96-3.09,95.97-5.52,143.99-7.31
			c94.68-3.52,189.46-4.49,284.2-2.94c48.05,0.79,96.1,2.23,144.11,4.33c43.71,1.91,89.59,1.1,132.64,9.72
			c39,7.81,74.21,29.59,83.67,70.39c7.76,33.48-1.67,69.49-19.35,98.31c-43.97,71.67-135.74,82.54-212.35,84.56
			c-90.78,2.39-181.16,3.27-271.74,10.76c-88.98,7.36-177.65,18.7-265.62,33.93c-45.85,7.93-91.51,16.93-136.94,26.98
			c-40.84,9.03-83.3,16.93-122.88,30.66c-23.79,8.26-49.41,21.44-58.21,46.8c-8.52,24.57,2.44,48.19,20.28,65.39
			c22.17,21.36,51.23,32.91,80.37,41.09c38.49,10.81,77.9,18.08,117.62,22.49c83.05,9.21,166.94,5.75,249.96-2.01
			c168.7-15.76,337.06-50.14,507.2-40.61c70.33,3.94,189.02,9.21,206.82,96.83c17.15,84.39-60.81,146.81-133.23,165.72
			c-41.56,10.86-84.72,13.23-127.42,15.89c-46.49,2.9-92.98,5.79-139.47,8.68c-94.35,5.87-188.69,11.75-283.04,17.62
			c-89.53,5.57-179.78,8.31-269.05,17.23c-55.69,5.56-118.92,17-161.29,56.71c-44.7,41.9-45.68,106.18-15.41,156.93
			c37.23,62.43,108.54,90.49,173.91,113.43c168.2,59.04,344.09,96.07,521.8,109.94c137.23,10.72,289.22,7.96,410.57-65.55
			c28.36-17.18,54.8-38.3,76.86-63.11c16.73-18.82,32.59-45.02,16.92-69.43c-28.33-44.12-91.6-23.31-118.06,10.11
			c-34.32,43.35-40.61,103.34-33.67,156.36c9.92,75.76,35.39,173.39-32.69,230.59c-30.8,25.88-71.58,36.46-110.12,44.53
			c-47.76,10-96.16,17.09-144.76,21.44c-79.77,7.14-159.04,3.26-238.91,2.63c-65.34-0.52-133.08,1.55-195.54,22.76
			c-51.78,17.59-107.53,53.63-127.91,106.94c-28.13,73.57,69.84,96.95,122.39,108.56c77.06,17.03,156.92,13.59,234.52,2.28
			c85.38-12.45,168.96-34.39,252.9-53.89c86.22-20.03,181.83-44.68,268.04-11.84c81.94,31.21,128.17,109.68,103.04,195.98
			c-23.91,82.09-97.83,134.38-172.43,167.49c-278.79,123.76-605.59,41.73-880.62,176.81c-47.17,23.17-126.08,60.01-89.41,124.39
			c34.45,60.48,120.69,87.42,184.34,100.64c168.36,34.96,336.49-15.53,501.75-43.56c94.34-16,189.89-22.35,285.49-17.14
			c82.54,4.5,183.96,11.25,243.67,76.54c28.06,30.68,46.48,73.34,38,115.32c-8.02,39.66-38.09,68.68-71.31,89.15
			c-33.67,20.74-71.42,34.49-108.41,47.97c-42.8,15.6-86.24,29.43-130.18,41.43c-89.27,24.39-180.11,40.3-272.04,50.44
			c-85.13,9.39-171.7,16.52-253.6,43.2c-66.27,21.59-130.58,56.16-177.36,108.77c-16.4,18.44-47.95,51.12-35.1,77.99
			c5.52,11.53,18.14,18.55,28.53,24.96c18.4,11.36,37.52,21.59,57.09,30.79c71.11,33.41,148.9,52.5,227.39,55.84
			c80.01,3.41,158.44-12.73,236.87-26.15c81.28-13.9,168.01-26.93,248.54-1.92c38.36,11.92,88.57,34.78,102.06,76.47
			c14.92,46.13-40.5,80.54-74.03,100.68c-140.82,84.61-313.93,64.53-470.68,67.71c-81.41,1.65-164.31,9.29-240.48,40.05
			c-25.41,10.26-56.03,23.56-61.47,53.71c-4.46,24.73,12.13,47.14,30.1,62.18c53.59,44.84,137.14,45.37,203.13,39.91
			c81.52-6.75,160.77-31.79,234.39-66.82c75.3-35.83,146.77-87.54,231.1-99.52c71.72-10.19,161.21,25.33,182.19,101.18
			c24.2,87.48-71.58,136.17-141.89,149.14c-91.93,16.96-185.73,1.51-277.68-6.91c-85.27-7.81-170.25-6.11-254.5,10.09
			c-41.79,8.04-82.98,19.25-123.07,33.54c-17.89,6.38-35.56,13.38-52.97,20.96c-16.65,7.24-37.14,14.01-49.68,27.87
			c-16.07,17.77-11.96,44.02,1.33,62.22c19.52,26.75,55.45,32.02,85.9,36.34c94.23,13.37,188.56,26.14,282.83,39.22
			c174.75,24.23,354.39,54.16,530.15,22.12c31.49-5.74,69.87-10.67,94.92-32.7c21.22-18.65,26.73-47.58,29.21-74.41
			c7.83-84.72-0.91-171.2-21.48-253.55c-0.78-3.12-5.6-1.8-4.82,1.33c21.35,85.49,34.06,182.48,19.09,270.22
			c-3.37,19.73-10.26,39.18-25.54,52.88c-15.81,14.17-37.83,19.53-57.96,24.22c-44.49,10.37-89.94,16.34-135.53,19.01
			c-181.71,10.62-364.63-25.32-543.9-50.18c-44.45-6.16-88.89-12.33-133.34-18.49c-38.8-5.38-96.15-5.51-118.73-43.78
			c-32.95-55.85,49.58-78.88,87.73-93.27c38.65-14.58,78.4-26.24,118.78-34.95c85.61-18.46,172.61-22.14,259.73-14.73
			c87.36,7.44,175.37,22.3,263.13,11.92c58.48-6.92,127.5-25.84,160.82-79.19c30.95-49.56,11.89-107.09-29.72-143.48
			c-118.94-104-264.99,4.42-378.63,58.6c-78.17,37.27-163.24,63.16-250.11,67.32c-41.24,1.97-84.73,0.1-124.78-10.59
			c-33.41-8.92-77.94-33.78-85.16-71.02c-9.72-50.15,63.28-69.31,98.9-79.86c40.48-11.99,82.41-18.49,124.42-21.99
			c81.14-6.77,162.54-2.28,243.83-3.82c72.25-1.37,145.51-7.71,214.82-29.31c31.71-9.88,62.51-23.11,90.85-40.49
			c24.97-15.32,57.29-35.89,70.93-62.78c30.22-59.58-52.23-104.8-96.59-119.81c-68.14-23.06-141.96-17.64-211.95-7.42
			c-80.32,11.73-159.96,31.46-241.42,33.62c-83.79,2.23-167.94-14.07-245.05-46.84c-18.71-7.95-36.99-16.85-54.76-26.72
			c-24.62-13.67-62.83-31.31-44.64-66.36c18.1-34.89,50.55-65.02,82.05-87.78c63.75-46.08,139.87-70.08,216.54-83.84
			c86.41-15.5,174.37-19.76,261.01-33.76c87.38-14.12,173.59-35.29,257.58-63.21c63.38-21.07,137.36-42.59,187.59-89.02
			c45.61-42.16,53.59-103.79,22.68-157.33c-35.38-61.29-104.2-87.29-170.79-98.1c-84.2-13.67-171.62-14.52-256.54-8.38
			c-174.08,12.59-342.75,74.29-518.17,71.12c-82.1-1.48-165.78-17.41-237.28-59.41c-33.24-19.52-80.74-62.36-56.8-105.31
			c16.9-30.32,63.43-49.67,93.49-64.22c135.74-65.71,289.32-77.73,437.37-90c143.35-11.88,290.54-22.94,424.83-78.72
			c62.72-26.06,125.47-62.68,163.88-120.49c35.21-52.98,47.49-125.16,14.74-182.28c-30.79-53.7-91.96-83.05-151.6-90.21
			c-84-10.09-169.37,14.86-250.34,34.1c-160.07,38.04-334.88,85.21-496.6,29.48c-18.55-6.39-38.56-13.21-54.68-24.7
			c-26.21-18.68-24.63-49.21-10.94-75.09c16.01-30.28,43.98-55.01,73.35-71.93c57.77-33.28,126.95-40.79,192.39-42.74
			c71.79-2.13,143.54,3.7,215.33,1.33c82.91-2.74,168.59-11.54,248.85-33.36c64.23-17.47,116.61-54.84,126.12-124.58
			c9.08-66.66-17.35-131.18-13.56-197.44c3.24-56.67,33.6-143.65,104.86-136.46c26.97,2.72,52.76,24.37,44.11,53.6
			c-6.01,20.32-24.23,37.15-39.3,51.27c-26.04,24.42-56.01,44.29-88.09,59.85c-133.47,64.72-291.7,57.74-435.27,42.37
			c-89.59-9.59-178.54-25.11-266.09-46.38c-83.45-20.28-167.91-44.05-247.19-77.41c-71.52-30.1-154.71-92.38-138.71-181.26
			c12.67-70.39,85.75-98.92,148.1-110.47c79.31-14.69,162.52-13.93,242.85-18.94c92.98-5.79,185.96-11.58,278.94-17.37
			c88.73-5.52,177.9-8.89,266.42-17.09c65.1-6.03,137.7-20.55,180.94-74.25c32.68-40.58,48-102.22,14.79-147.11
			c-38.21-51.65-114.49-57.18-173.14-61.8c-164.99-13-329,17.95-492.44,35.45c-82.02,8.78-164.73,14.49-247.18,9.15
			c-41.72-2.7-83.26-8.32-124.02-17.69c-37.13-8.53-76.27-18.48-105.7-44.11c-35.81-31.18-32.24-76.77,10.84-98.93
			c36.35-18.7,80.78-25,120.26-34.07c86.8-19.95,174.5-36.02,262.73-48.17c90.64-12.48,181.87-20.83,273.27-24.98
			c79.55-3.61,161.86,3.02,240.58-10.49c61.69-10.59,119.78-39.34,146.21-98.86c20.17-45.4,18.8-103.85-24.16-135.67
			c-23.69-17.55-53.58-23.01-82.29-25.7c-42.92-4.02-86.28-5.21-129.34-6.89c-93.31-3.63-186.7-4.8-280.07-3.52
			c-91.99,1.27-183.95,4.94-275.76,10.99c-40.58,2.68-83.56,9.47-123.88,1.18c-38.9-8-75.02-35.74-76.76-78.39
			c-2.02-49.58,54.71-60.12,91.8-71.9c40.74-12.94,81.85-24.72,123.25-35.36c84.05-21.6,169.33-38.51,255.27-50.52
			c169.22-23.66,340.73-28.45,511.02-14.69C1284.92,460.81,1284.9,455.81,1281.71,455.55L1281.71,455.55z"/>
	</g>
</g>
</svg>
