<?xml version="1.0" encoding="utf-8"?>
<!-- Generator: Adobe Illustrator 25.4.1, SVG Export Plug-In . SVG Version: 6.00 Build 0)  -->
<svg version="1.1" id="레이어_1" xmlns="http://www.w3.org/2000/svg" xmlns:xlink="http://www.w3.org/1999/xlink" x="0px"
	 y="0px" viewBox="0 0 1920 4000" style="enable-background:new 0 0 1920 4000;" xml:space="preserve">
<g>
	<g>
		<path d="M340.08,500.44c172.09-30.44,348.34-35,521.8-13.64c88.62,10.91,176.42,28.56,262.37,52.73
			c79.22,22.28,160.37,48.11,234.01,85.29c62.28,31.44,127.61,81.87,130.18,157.88c3,88.84-72.97,151.81-148.09,182.24
			c-38.47,15.58-78.87,26.23-118.82,37.21c-43.93,12.08-88.04,23.46-132.32,34.15c-90.51,21.86-181.74,40.8-273.47,56.79
			c-86.61,15.09-173.84,24.9-260.68,38.26c-71.62,11.02-148.08,30.6-199.08,85.7c-41.21,44.52-67,111.22-44.97,170.73
			c21.37,57.72,78.6,87.04,134.62,102.37c36.38,9.96,73.91,14.92,111.15,20.42c45.14,6.66,90.35,12.9,135.61,18.73
			c92.33,11.88,184.88,22.02,277.59,30.41c94.8,8.58,189.76,15.33,284.82,20.24c46.47,2.4,92.96,4.36,139.46,5.88
			c43.63,1.43,88.54,5.33,132.11,1.35c31.25-2.85,62.26-12.16,82.65-37.3c15.2-18.74,25.11-45.51,16.6-69.29
			c-18.92-52.87-89.35-32.69-112.7,4.95c-43.31,69.82,13.69,157.81,12.03,231.13c-2.08,91.37-91.83,128.74-166.07,153.34
			c-164.6,54.54-339.4,66.63-505.2,116.45c-135.69,40.77-270.69,108.75-355.45,226.24c-76.04,105.41-101.86,274.73,20.5,357.29
			c62.47,42.15,139.86,49.43,213.18,48.13c47.36-0.83,94.7-4.67,142.09-2.96c42.41,1.53,84.52,7.97,125.43,19.26
			c78.53,21.68,156.38,60.81,215.84,117.17c57.5,54.5,103.63,134.87,79.03,216c-22.09,72.86-90.01,119.41-152.89,155.16
			c-62.9,35.76-128.46,66.52-194.07,96.92c-125.15,57.97-253.69,114.87-361.4,202.68c-27.85,22.7-54.08,47.42-77.94,74.29
			c-23.16,26.08-47.08,54.76-61.93,86.53c-12.85,27.5-17.33,59.84,0.44,86.29c13.89,20.68,37.65,31.8,61.09,37.8
			c30.99,7.94,62.93,7.39,94.66,6.94c48.32-0.68,96.63-2.05,144.91-4.12c92.37-3.96,184.64-10.46,276.66-19.49
			c91.14-8.95,182.03-20.37,272.55-34.26c46.77-7.17,93.44-15,139.98-23.49c28.81-5.25,67.87-7.99,86.99-33.82
			c19.07-25.76,12.13-66.57,9.88-96.13c-3.27-42.98-10.56-85.48-21.34-127.2c-0.48-1.87-3.38-1.08-2.89,0.8
			c11.74,45.42,19.33,91.79,22.06,138.65c1.15,19.67,3.37,40.96-0.82,60.42c-5.09,23.65-22,36.62-44.06,43.7
			c-39.85,12.79-84,16.84-125.2,23.71c-43.55,7.26-87.2,13.96-130.93,20.08c-180.93,25.34-363.26,40.79-545.87,46.34
			c-42.21,1.28-84.99,3.74-127.2,1.74c-29.77-1.41-62.32-6.24-87.55-23.28c-78.93-53.32,6.89-152.97,50.21-199.56
			c94.03-101.12,218.06-166.72,341.37-225.13c62.74-29.72,126.21-57.91,188.47-88.63c59.92-29.55,122.24-60.03,173.8-103.09
			c49.89-41.67,86.62-99.14,80.06-166.42c-6.57-67.43-50.91-126.52-101.11-169.16c-56.48-47.98-125.69-82.48-196.72-102.84
			c-80.97-23.22-161.82-21.61-245.18-18.68c-79.04,2.78-162.48,0.9-232.03-41.76c-65.12-39.94-96.19-110.31-91.67-185.37
			c9.14-151.46,130.21-267.31,257.21-333.79c141.76-74.2,300.83-98.12,455.99-128.5c83.92-16.43,168.11-34.98,248.18-65.6
			c55.83-21.35,115.57-55.8,127.63-119.51c15.43-81.48-52.14-167.01-13.88-245.89c14.02-28.91,51.75-51.63,83.94-39.96
			c39.57,14.34,33.97,63.14,13.55,90.74c-26.92,36.39-74.09,40.79-116.01,40.61c-43.56-0.19-87.17-1.99-130.69-3.6
			c-90.89-3.37-181.71-8.41-272.41-15.13c-183.43-13.59-366.36-34.02-548.27-61.25c-65.7-9.84-140.59-19.5-191.93-65.95
			c-57-51.56-53.15-132.48-13.1-193.13c44.4-67.23,121.5-94.88,197.59-108.47c83.33-14.88,167.96-22.64,251.51-36.58
			c87.75-14.65,175.06-32,261.75-52.01c84.58-19.53,169.64-40.14,252.35-66.65c65.97-21.15,131.79-53.07,168.2-114.95
			c31.94-54.29,30.42-118.95-8.52-169.17c-37.78-48.73-96.42-76.87-152.25-99.46c-77.63-31.41-157.53-57.18-238.85-77.17
			C908.13,482.32,742.14,465.43,577,471.85c-79.73,3.1-159.16,11.8-237.72,25.69C337.38,497.88,338.19,500.77,340.08,500.44
			L340.08,500.44z"/>
	</g>
</g>
</svg>
