<svg id="레이어_1" data-name="레이어 1" xmlns="http://www.w3.org/2000/svg" viewBox="0 0 826.99 4516.26"><path d="M962.41,497.64C831,564,717.76,659.81,629.82,777.84c-39.64,53.18-85.68,117.1-87.63,185.9-1.9,67.25,46.77,106.78,104,131C707.09,1120.58,777,1126.34,842,1134.5c69.93,8.79,141.19,12.67,209,33.23,73.38,22.24,145.76,69.33,187.72,134.42,49.42,76.65,40.24,163.46-15.78,232.79-98.86,122.34-274.53,126.76-415.52,160.43-129.8,31-262.38,102.31-272.94,250.26-9.45,132.45,87.63,248.91,202.17,302,66.51,30.81,135.85,41.48,207.83,49.58a536.19,536.19,0,0,0,110.49,1.24c27.32-2.59,58.15-7.87,77.66-29.23,41.49-45.41-11.67-98.19-50.37-121.83-60.71-37.07-128.65-56.92-200.28-49.49-130.55,13.54-235.5,110.86-261.12,239-14,70-5.82,142.59,28.23,205.66,32,59.26,84.85,103,143.21,135.24,55.24,30.52,117.18,52.34,179.43,62.44,39,6.33,78.18,12,117.56,15.6,37.2,3.37,74.73,2.55,111.62,8.38,82.22,13,180.76,64.59,151.41,163.95-20.64,69.84-88.24,106.11-151.14,131.09-152.39,60.51-334.41,63.3-493.26,29.48q-28.87-6.15-57.21-14.5c-8.67-2.57-20.49-10.52-29.62-6.45-7.19,3.21-17.84,24.2-21.61,30.94a328.81,328.81,0,0,0-21.78,46.48c-22.8,62.16-22.17,134.52-4.18,197.76,38,133.38,140.26,234.46,254.31,308.17,103.6,66.94,254.25,125.17,354.87,22.38,14.58-14.9,35.3-44.08,32.74-66.3-2.09-18.11-40.65-32.23-55.45-38.76-54.65-24.1-117-27.59-174.52-12.26-131.42,35-217.36,157.12-205.94,292.69,5.55,65.95,35.3,130.34,83.56,175.94,43.73,41.32,102.86,64.06,162.07,71.08,64.86,7.69,130-9.25,184.29-45.06a1.51,1.51,0,0,0-1.15-2.74c-4.37.64-9.56,4.91-12.48,8.19a1.52,1.52,0,0,0,1.46,2.51c3.77-.56,9.72-6.2,12.17-8,1.29-.91.58-3.32-1.15-2.74-8.86,3-5.15,1.14-13.06,6.56-1.33.92-.56,3.26,1.16,2.75,5.06-1.53,8.36-4,13-6.57,1.41-.75.63-2.68-.75-2.79l-1.87-.15a1.51,1.51,0,0,0-1.45,1.1l-.19.81a1.51,1.51,0,0,0,1.85,1.84l2-.66a1.51,1.51,0,0,0,0-2.89c-5.37-1.83-18.81-1.13-14.9,7.86a1.46,1.46,0,0,0,1.29.75c5.28.1,9.7-3,14-5.87a1.51,1.51,0,0,0,0-2.59c-64.55-36.12-141.53-16.64-195.94,29.12-62.1,52.23-95.38,123.27-94.41,204.32,2,167.79,129.84,302.26,214,436,57.45,91.32,101.56,184.26,99,294.54,0,1.93,3,1.93,3,0,3.78-162.4-94.29-289.81-182.16-417.33-85.11-123.51-186.42-298.84-97.12-446.68,41.71-69.06,125.49-130.89,210-113.59a145.3,145.3,0,0,1,28.7,9.44c4.23,1.82,10.55,3.78,10.38,6.14,0-.22-1.55,1.74-1.22.33-1,4.14-8.7,4.76-3.55,5.82.19,0,6.27-4.44,6.27-4.42,0-2-10.6,4.11-10.78,4.2-37.38,19.27-73.62,33.88-116,37.62-41.55,3.66-78.48-5-117.77-16.88-37.9-11.45-70.13-28.44-99.09-56.58-61.78-60-89.56-148.15-78.69-232.93s58.42-155.47,131.81-198.8c64.89-38.31,145.15-49.71,217.39-27a248.13,248.13,0,0,1,49.86,21.94c6.52,3.78,18.8,9.4,23.47,15.41,9.66,12.44.82,30.84-4.9,42.56-15.88,32.59-47.17,56.2-79.59,70.88-80.27,36.35-170.75,2-243.79-35.44-69-35.42-133-85.87-187.32-141.07-55.57-56.47-96.44-124.69-116.69-201.44-20.74-78.62-12.29-167,29.53-237.36,4.1-6.9,10.22-19.44,17.36-23.2,9.38-4.94,19.71.58,28.74,3.26,21.54,6.4,43.41,11.73,65.43,16.2,38.95,7.91,78.51,13.73,118.16,15.79,82.52,4.31,164.12,2.64,245.54-12.83,68.16-12.94,140.33-32.48,198.84-71.28,47.9-31.77,88.68-83.71,82.28-144.42-7-66.57-76.56-101.27-134.81-114.74-34.08-7.89-67.94-8.51-102.66-10.52-44.65-2.59-89-8.38-133.19-15.29-71.66-11.2-142.77-33.77-205.79-70.54-72.29-42.18-132.38-103.45-155.42-185.63-22.72-81-10.14-172.12,33.12-244.33,86.94-145.1,302.92-188.81,435.81-78.12,13.87,11.56,30.14,25.07,39,40.93,14.81,26.4,8.35,57.24-17,74.31-35.15,23.66-88.36,22.7-129.24,20.8-82.2-3.82-165.5-14.5-241.52-47.83-68.62-30.08-129-76.88-167.74-141.76-43.93-73.53-59.36-162.67-23.75-243,34.13-77,112-122.26,188.27-149,78.62-27.59,162.53-33,242.91-53.24,121.19-30.56,279-96.38,286.49-242.75,3.51-68.44-31.16-130.73-81.49-175.45-54.83-48.73-119-74.42-189.27-91.38-65.77-15.87-135.78-18.83-202.9-27-75.8-9.26-170-21.11-223.94-80.08-71.24-77.89-6.71-174.77,41.5-245.94,42.46-62.69,93.8-118.76,150.85-168.37,59.69-51.9,123.85-95.73,194.51-131.4,1.73-.87.21-3.46-1.51-2.59Z" transform="translate(-533.84 -497.46)"/></svg>