<?xml version="1.0" encoding="utf-8"?>
<!-- Generator: Adobe Illustrator 25.4.1, SVG Export Plug-In . SVG Version: 6.00 Build 0)  -->
<svg version="1.1" id="레이어_1" xmlns="http://www.w3.org/2000/svg" xmlns:xlink="http://www.w3.org/1999/xlink" x="0px"
	 y="0px" viewBox="0 0 196.42 296.69" style="enable-background:new 0 0 196.42 296.69;" xml:space="preserve">
<style type="text/css">
	.st0{fill:#990404;}
	.st1{fill:#FF0000;}
	.st2{fill:#E88328;}
	.st3{fill:#F7F723;}
	.st4{fill:#EAE298;}
	.st5{fill:#E84265;}
	.st6{fill:none;stroke:#E84265;stroke-width:2;stroke-miterlimit:10;}
	.st7{fill:#494949;stroke:#000000;stroke-miterlimit:10;}
	.st8{fill:#5AACCC;stroke:#000000;stroke-miterlimit:10;}
	.st9{fill:#FFFFFF;}
	.st10{fill:#777372;}
	.st11{fill:#2D2D2D;}
	.st12{fill:#AAAAAA;}
	.st13{fill:none;stroke:#000000;stroke-miterlimit:10;}
</style>
<g>
	<g>
		<ellipse class="st0" cx="98.32" cy="232.73" rx="7.73" ry="29.12"/>
		<ellipse class="st1" cx="98.32" cy="228.32" rx="6.56" ry="24.71"/>
		<ellipse class="st2" cx="98.32" cy="225.28" rx="5.75" ry="21.67"/>
		<ellipse class="st3" cx="98.32" cy="221.63" rx="4.78" ry="18.02"/>
	</g>
	<g>
		<ellipse class="st0" cx="112.61" cy="223.91" rx="7.73" ry="29.12"/>
		<ellipse class="st1" cx="112.61" cy="219.5" rx="6.56" ry="24.71"/>
		<ellipse class="st2" cx="112.61" cy="216.46" rx="5.75" ry="21.67"/>
		<ellipse class="st3" cx="112.61" cy="212.81" rx="4.78" ry="18.02"/>
	</g>
	<g>
		<ellipse class="st0" cx="83.73" cy="225.13" rx="7.73" ry="29.12"/>
		<ellipse class="st1" cx="83.73" cy="220.72" rx="6.56" ry="24.71"/>
		<ellipse class="st2" cx="83.73" cy="217.68" rx="5.75" ry="21.67"/>
		<ellipse class="st3" cx="83.73" cy="214.03" rx="4.78" ry="18.02"/>
	</g>
	<g>
		<g>
			<g>
				<ellipse class="st4" cx="98.36" cy="125.46" rx="45.61" ry="90.62"/>
			</g>
			<path class="st5" d="M64.46,152.68v32.21c0,0-39.23,5.8-39.23,43.51C25.23,228.39,13.67,152.68,64.46,152.68z"/>
			<path class="st5" d="M131.96,152.68v32.21c0,0,39.23,5.8,39.23,43.51C171.19,228.39,182.75,152.68,131.96,152.68z"/>
			<path class="st6" d="M98.51,152.68v32.21c0,0-0.07,5.8-0.07,43.51C98.45,228.39,98.43,152.68,98.51,152.68z"/>
			<circle class="st7" cx="98.51" cy="85.17" r="21.29"/>
			<circle class="st8" cx="98.67" cy="85.32" r="18.25"/>
			<g>
				<polygon class="st9" points="98.59,65.67 98.46,65.5 98.51,65.29 98.69,65.2 98.86,65.29 98.91,65.5 98.78,65.67 				"/>
				<polygon points="98.69,64.64 98.08,64.95 97.93,65.62 98.35,66.16 99.02,66.16 99.45,65.62 99.3,64.95 98.69,64.64 				"/>
			</g>
			<g>
				<polygon class="st9" points="88.58,68.26 88.52,68.05 88.62,67.89 88.82,67.88 88.96,68.04 88.94,68.24 88.77,68.34 				"/>
				<polygon points="89.02,67.36 88.34,67.4 87.97,67.97 88.17,68.63 88.81,68.89 89.4,68.55 89.49,67.87 89.02,67.36 				"/>
			</g>
			<g>
				<polygon class="st9" points="81.24,75.44 81.25,75.24 81.41,75.14 81.62,75.2 81.7,75.39 81.6,75.56 81.4,75.59 				"/>
				<polygon points="81.33,74.59 80.77,74.97 80.72,75.64 81.23,76.11 81.92,76.02 82.25,75.43 82,74.8 81.33,74.59 				"/>
			</g>
			<g>
				<polygon class="st9" points="78.63,85.48 78.55,85.3 78.63,85.13 78.84,85.08 79.01,85.21 79.01,85.4 78.84,85.52 				"/>
				<polygon points="78.97,84.54 78.29,84.69 77.99,85.3 78.29,85.91 78.97,86.06 79.51,85.64 79.51,84.96 78.97,84.54 				"/>
			</g>
			<g>
				<polygon class="st9" points="81.23,95.36 81.22,95.17 81.38,95.02 81.58,95.05 81.68,95.21 81.6,95.41 81.39,95.47 				"/>
				<polygon points="81.21,94.5 80.7,94.96 80.75,95.64 81.31,96.02 81.97,95.81 82.23,95.18 81.9,94.59 81.21,94.5 				"/>
			</g>
			<g>
				<polygon class="st9" points="88.59,102.74 88.48,102.58 88.55,102.37 88.74,102.29 88.9,102.38 88.93,102.59 88.78,102.75 				
					"/>
				<polygon points="88.78,101.73 88.14,101.99 87.93,102.65 88.31,103.22 88.99,103.26 89.46,102.75 89.36,102.07 88.78,101.73 
									"/>
			</g>
			<g>
				<polygon class="st9" points="98.47,105.36 98.42,105.14 98.55,104.98 98.74,104.98 98.87,105.14 98.82,105.36 98.64,105.44 				
					"/>
				<polygon points="98.98,104.48 98.31,104.48 97.88,105.02 98.04,105.7 98.64,106 99.25,105.7 99.4,105.02 98.98,104.48 				"/>
			</g>
			<g>
				<polygon class="st9" points="108.37,102.61 108.4,102.4 108.56,102.31 108.75,102.39 108.81,102.6 108.71,102.76 108.51,102.77 
									"/>
				<polygon points="108.52,101.75 107.93,102.09 107.84,102.77 108.31,103.28 108.99,103.24 109.36,102.67 109.16,102.01 
					108.52,101.75 				"/>
			</g>
			<g>
				<polygon class="st9" points="115.71,95.44 115.63,95.25 115.73,95.09 115.93,95.06 116.09,95.21 116.08,95.4 115.92,95.51 				
					"/>
				<polygon points="116.1,94.53 115.42,94.63 115.08,95.21 115.34,95.85 116,96.06 116.56,95.68 116.61,95 116.1,94.53 				"/>
			</g>
			<g>
				<polygon class="st9" points="118.32,85.44 118.32,85.25 118.49,85.12 118.7,85.17 118.79,85.34 118.7,85.52 118.49,85.56 				
					"/>
				<polygon points="118.37,84.58 117.82,85 117.82,85.68 118.37,86.1 119.04,85.95 119.34,85.34 119.04,84.73 118.37,84.58 				"/>
			</g>
			<g>
				<polygon class="st9" points="115.75,75.59 115.65,75.43 115.73,75.24 115.94,75.17 116.1,75.28 116.11,75.47 115.95,75.62 				
					"/>
				<polygon points="116.02,74.62 115.36,74.83 115.1,75.47 115.44,76.05 116.12,76.15 116.63,75.68 116.58,75 116.02,74.62 				"/>
			</g>
			<g>
				<polygon class="st9" points="108.43,68.26 108.4,68.06 108.55,67.9 108.74,67.91 108.85,68.07 108.79,68.28 108.59,68.36 				
					"/>
				<polygon points="108.34,67.38 107.87,67.89 107.97,68.57 108.56,68.91 109.19,68.65 109.4,67.99 109.02,67.43 108.34,67.38 				
					"/>
			</g>
			<g>
				<g>
					<polygon class="st10" points="79.05,54 78.44,54.3 78.29,54.98 78.71,55.52 79.39,55.52 79.81,54.98 79.66,54.3 					"/>
				</g>
				<g>
					<polygon class="st10" points="73.58,51.26 72.97,51.57 72.82,52.24 73.24,52.79 73.92,52.79 74.34,52.24 74.19,51.57 					"/>
				</g>
				<g>
					<polygon class="st10" points="84.53,55.83 83.92,56.13 83.77,56.8 84.19,57.35 84.86,57.35 85.29,56.8 85.14,56.13 					"/>
				</g>
				<g>
					<polygon class="st10" points="90,57.35 89.39,57.65 89.24,58.32 89.66,58.87 90.34,58.87 90.76,58.32 90.61,57.65 					"/>
				</g>
				<g>
					<polygon class="st10" points="95.47,57.95 94.86,58.26 94.71,58.93 95.13,59.48 95.81,59.48 96.23,58.93 96.08,58.26 					"/>
				</g>
				<g>
					<polygon class="st10" points="100.95,57.95 100.34,58.26 100.19,58.93 100.61,59.48 101.28,59.48 101.71,58.93 101.56,58.26 
											"/>
				</g>
				<g>
					<polygon class="st10" points="106.42,57.35 105.81,57.65 105.66,58.32 106.08,58.87 106.76,58.87 107.18,58.32 107.03,57.65 
											"/>
				</g>
				<g>
					<polygon class="st10" points="111.89,56.13 111.28,56.43 111.13,57.11 111.55,57.65 112.23,57.65 112.65,57.11 112.5,56.43 
											"/>
				</g>
				<g>
					<polygon class="st10" points="117.37,54.31 116.76,54.61 116.61,55.28 117.03,55.83 117.71,55.83 118.13,55.28 117.98,54.61 
											"/>
				</g>
				<g>
					<polygon class="st10" points="122.84,51.87 122.23,52.17 122.08,52.85 122.5,53.39 123.18,53.39 123.6,52.85 123.45,52.17 
											"/>
				</g>
			</g>
			<g>
				<g>
					<polygon class="st10" points="73.58,81.67 72.97,81.97 72.82,82.65 73.24,83.19 73.92,83.19 74.34,82.65 74.19,81.97 					"/>
				</g>
				<g>
					<polygon class="st10" points="68.1,78.33 67.5,78.63 67.34,79.31 67.77,79.85 68.44,79.85 68.87,79.31 68.71,78.63 					"/>
				</g>
				<g>
					<polygon class="st10" points="62.63,73.46 62.02,73.76 61.87,74.44 62.29,74.98 62.97,74.98 63.39,74.44 63.24,73.76 					"/>
				</g>
				<g>
					<polygon class="st10" points="122.84,82.28 122.23,82.58 122.08,83.26 122.5,83.8 123.18,83.8 123.6,83.26 123.45,82.58 					
						"/>
				</g>
				<g>
					<polygon class="st10" points="128.31,78.94 127.7,79.24 127.55,79.91 127.98,80.46 128.65,80.46 129.07,79.91 128.92,79.24 
											"/>
				</g>
				<g>
					<polygon class="st10" points="133.79,74.38 133.18,74.68 133.03,75.35 133.45,75.9 134.13,75.9 134.55,75.35 134.4,74.68 					
						"/>
				</g>
			</g>
			<g>
				<polygon class="st10" points="79.05,114.82 78.44,115.12 78.29,115.8 78.71,116.34 79.39,116.34 79.81,115.8 79.66,115.12 				
					"/>
			</g>
			<g>
				<polygon class="st10" points="73.58,112.08 72.97,112.38 72.82,113.06 73.24,113.6 73.92,113.6 74.34,113.06 74.19,112.38 				
					"/>
			</g>
			<g>
				<polygon class="st10" points="68.1,108.74 67.5,109.04 67.34,109.71 67.77,110.26 68.44,110.26 68.87,109.71 68.71,109.04 				
					"/>
			</g>
			<g>
				<polygon class="st10" points="62.63,103.87 62.02,104.17 61.87,104.85 62.29,105.39 62.97,105.39 63.39,104.85 63.24,104.17 
									"/>
			</g>
			<g>
				<polygon class="st10" points="57.16,100.83 56.55,101.13 56.4,101.81 56.82,102.35 57.5,102.35 57.92,101.81 57.77,101.13 				
					"/>
			</g>
			<g>
				<polygon class="st10" points="84.53,116.64 83.92,116.94 83.77,117.62 84.19,118.16 84.86,118.16 85.29,117.62 85.14,116.94 
									"/>
			</g>
			<g>
				<polygon class="st10" points="95.47,118.77 94.86,119.07 94.71,119.75 95.13,120.29 95.81,120.29 96.23,119.75 96.08,119.07 
									"/>
			</g>
			<g>
				<polygon class="st10" points="100.95,118.77 100.34,119.07 100.19,119.75 100.61,120.29 101.28,120.29 101.71,119.75 
					101.56,119.07 				"/>
			</g>
			<g>
				<polygon class="st10" points="106.42,118.16 105.81,118.46 105.66,119.14 106.08,119.68 106.76,119.68 107.18,119.14 
					107.03,118.46 				"/>
			</g>
			<g>
				<polygon class="st10" points="111.89,116.95 111.28,117.25 111.13,117.93 111.55,118.47 112.23,118.47 112.65,117.93 
					112.5,117.25 				"/>
			</g>
			<g>
				<polygon class="st10" points="117.37,115.12 116.76,115.42 116.61,116.1 117.03,116.64 117.71,116.64 118.13,116.1 
					117.98,115.42 				"/>
			</g>
			<g>
				<polygon class="st10" points="122.84,112.69 122.23,112.99 122.08,113.67 122.5,114.21 123.18,114.21 123.6,113.67 
					123.45,112.99 				"/>
			</g>
			<g>
				<polygon class="st10" points="128.31,109.35 127.7,109.65 127.55,110.32 127.98,110.87 128.65,110.87 129.07,110.32 
					128.92,109.65 				"/>
			</g>
			<g>
				<polygon class="st10" points="133.79,104.78 133.18,105.08 133.03,105.76 133.45,106.3 134.13,106.3 134.55,105.76 
					134.4,105.08 				"/>
			</g>
			<g>
				<polygon class="st10" points="139.26,101.74 138.65,102.04 138.5,102.72 138.92,103.26 139.6,103.26 140.02,102.72 
					139.87,102.04 				"/>
			</g>
			<g>
				<g>
					<polygon class="st10" points="79.05,145.23 78.44,145.53 78.29,146.21 78.71,146.75 79.39,146.75 79.81,146.21 79.66,145.53 
											"/>
				</g>
				<g>
					<polygon class="st10" points="73.58,142.49 72.97,142.79 72.82,143.47 73.24,144.01 73.92,144.01 74.34,143.47 74.19,142.79 
											"/>
				</g>
				<g>
					<polygon class="st10" points="68.1,139.15 67.5,139.45 67.34,140.12 67.77,140.67 68.44,140.67 68.87,140.12 68.71,139.45 
											"/>
				</g>
				<g>
					<polygon class="st10" points="62.63,134.28 62.02,134.58 61.87,135.26 62.29,135.8 62.97,135.8 63.39,135.26 63.24,134.58 
											"/>
				</g>
				<g>
					<polygon class="st10" points="57.16,131.24 56.55,131.54 56.4,132.22 56.82,132.76 57.5,132.76 57.92,132.22 57.77,131.54 
											"/>
				</g>
				<g>
					<polygon class="st10" points="84.53,147.05 83.92,147.35 83.77,148.03 84.19,148.57 84.86,148.57 85.29,148.03 85.14,147.35 
											"/>
				</g>
				<g>
					<polygon class="st10" points="90,148.57 89.39,148.87 89.24,149.55 89.66,150.09 90.34,150.09 90.76,149.55 90.61,148.87 					
						"/>
				</g>
				<g>
					<polygon class="st10" points="95.47,149.18 94.86,149.48 94.71,150.16 95.13,150.7 95.81,150.7 96.23,150.16 96.08,149.48 
											"/>
				</g>
				<g>
					<polygon class="st10" points="100.95,149.18 100.34,149.48 100.19,150.16 100.61,150.7 101.28,150.7 101.71,150.16 
						101.56,149.48 					"/>
				</g>
				<g>
					<polygon class="st10" points="106.42,148.57 105.81,148.87 105.66,149.55 106.08,150.09 106.76,150.09 107.18,149.55 
						107.03,148.87 					"/>
				</g>
				<g>
					<polygon class="st10" points="111.89,147.36 111.28,147.66 111.13,148.33 111.55,148.88 112.23,148.88 112.65,148.33 
						112.5,147.66 					"/>
				</g>
				<g>
					<polygon class="st10" points="117.37,145.53 116.76,145.83 116.61,146.51 117.03,147.05 117.71,147.05 118.13,146.51 
						117.98,145.83 					"/>
				</g>
				<g>
					<polygon class="st10" points="122.84,143.1 122.23,143.4 122.08,144.08 122.5,144.62 123.18,144.62 123.6,144.08 123.45,143.4 
											"/>
				</g>
				<g>
					<polygon class="st10" points="128.31,139.75 127.7,140.05 127.55,140.73 127.98,141.27 128.65,141.27 129.07,140.73 
						128.92,140.05 					"/>
				</g>
				<g>
					<polygon class="st10" points="133.79,135.19 133.18,135.49 133.03,136.17 133.45,136.71 134.13,136.71 134.55,136.17 
						134.4,135.49 					"/>
				</g>
				<g>
					<polygon class="st10" points="139.26,132.15 138.65,132.45 138.5,133.13 138.92,133.67 139.6,133.67 140.02,133.13 
						139.87,132.45 					"/>
				</g>
			</g>
			<g>
				<polygon class="st10" points="79.05,184.76 78.44,185.06 78.29,185.74 78.71,186.28 79.39,186.28 79.81,185.74 79.66,185.06 
									"/>
			</g>
			<g>
				<polygon class="st10" points="73.58,182.02 72.97,182.32 72.82,183 73.24,183.54 73.92,183.54 74.34,183 74.19,182.32 				"/>
			</g>
			<g>
				<polygon class="st10" points="68.1,178.68 67.5,178.98 67.34,179.65 67.77,180.2 68.44,180.2 68.87,179.65 68.71,178.98 				"/>
			</g>
			<g>
				<polygon class="st10" points="84.53,186.58 83.92,186.88 83.77,187.56 84.19,188.1 84.86,188.1 85.29,187.56 85.14,186.88 				
					"/>
			</g>
			<g>
				<polygon class="st10" points="90,188.1 89.39,188.4 89.24,189.08 89.66,189.62 90.34,189.62 90.76,189.08 90.61,188.4 				"/>
			</g>
			<g>
				<polygon class="st10" points="95.47,188.71 94.86,189.01 94.71,189.69 95.13,190.23 95.81,190.23 96.23,189.69 96.08,189.01 
									"/>
			</g>
			<g>
				<polygon class="st10" points="100.95,188.71 100.34,189.01 100.19,189.69 100.61,190.23 101.28,190.23 101.71,189.69 
					101.56,189.01 				"/>
			</g>
			<g>
				<polygon class="st10" points="106.42,188.1 105.81,188.4 105.66,189.08 106.08,189.62 106.76,189.62 107.18,189.08 
					107.03,188.4 				"/>
			</g>
			<g>
				<polygon class="st10" points="111.89,186.89 111.28,187.19 111.13,187.86 111.55,188.41 112.23,188.41 112.65,187.86 
					112.5,187.19 				"/>
			</g>
			<g>
				<polygon class="st10" points="117.37,185.06 116.76,185.36 116.61,186.04 117.03,186.58 117.71,186.58 118.13,186.04 
					117.98,185.36 				"/>
			</g>
			<g>
				<polygon class="st10" points="122.84,182.63 122.23,182.93 122.08,183.61 122.5,184.15 123.18,184.15 123.6,183.61 
					123.45,182.93 				"/>
			</g>
			<g>
				<polygon class="st10" points="128.31,179.28 127.7,179.59 127.55,180.26 127.98,180.81 128.65,180.81 129.07,180.26 
					128.92,179.59 				"/>
			</g>
			<g>
				<path class="st11" d="M98.5,148.06c-4.93,0-8.99-3.85-9.25-8.76l-0.01-0.26V120l0.01-0.16c0.26-4.92,4.32-8.76,9.25-8.76
					s8.99,3.85,9.25,8.76l0.01,0.26v19.05l-0.01,0.16C107.49,144.21,103.43,148.06,98.5,148.06z"/>
				<path d="M98.5,111.57c4.66,0,8.5,3.64,8.75,8.29l0.01,0.19v18.98l-0.01,0.24c-0.24,4.65-4.09,8.29-8.75,8.29
					c-4.66,0-8.5-3.64-8.75-8.29l-0.01-0.19V120.1l0.01-0.24C90,115.21,93.84,111.57,98.5,111.57 M98.5,110.57
					c-5.22,0-9.47,4.09-9.74,9.24h-0.01v19.52h0.01c0.27,5.15,4.53,9.24,9.74,9.24c5.22,0,9.47-4.09,9.74-9.24h0.01v-19.52h-0.01
					C107.98,114.66,103.72,110.57,98.5,110.57L98.5,110.57z"/>
			</g>
			<g>
				<path class="st12" d="M98.47,146.08c-4.1,0-7.48-3.46-7.7-7.87l-0.01-0.23v-17.21l0.01-0.15c0.22-4.41,3.6-7.87,7.7-7.87
					s7.48,3.46,7.7,7.87l0.01,0.24v17.2l-0.01,0.16C105.96,142.62,102.58,146.08,98.47,146.08z"/>
				<path d="M98.47,113.25c3.83,0,7,3.25,7.2,7.4l0.01,0.17v17.15l-0.01,0.22c-0.2,4.15-3.37,7.4-7.2,7.4s-7-3.25-7.2-7.4
					l-0.01-0.17v-17.15l0.01-0.22C91.48,116.5,94.64,113.25,98.47,113.25 M98.47,112.25c-4.39,0-7.97,3.7-8.2,8.35h-0.01v17.64h0.01
					c0.23,4.65,3.81,8.35,8.2,8.35s7.97-3.7,8.2-8.35h0.01V120.6h-0.01C106.44,115.94,102.86,112.25,98.47,112.25L98.47,112.25z"/>
			</g>
			<g>
				<path d="M98.65,128.21c-1.63,0-2.95,1.32-2.95,2.95c0,1.63,1.32,2.95,2.95,2.95c1.63,0,2.95-1.32,2.95-2.95
					C101.61,129.53,100.28,128.21,98.65,128.21z M98.65,133.67c-1.38,0-2.51-1.12-2.51-2.51s1.12-2.51,2.51-2.51
					c1.38,0,2.51,1.12,2.51,2.51S100.04,133.67,98.65,133.67z"/>
			</g>
			<path d="M102.24,131.59c0.74,0.24,1.05-0.42,1.05-0.42s-0.31-0.66-1.05-0.42l-2.56,0.2c-0.06-0.01-0.1-0.01-0.15-0.01
				c0.04-0.03,0.08-0.05,0.13-0.09l2.32-1.11c0.76-0.16,0.69-0.89,0.69-0.89s-0.6-0.42-1.12,0.16l-2.12,1.46
				c-0.05,0.02-0.1,0.04-0.14,0.07c0.02-0.05,0.05-0.09,0.07-0.14l1.46-2.12c0.58-0.52,0.16-1.12,0.16-1.12s-0.73-0.07-0.89,0.69
				l-1.11,2.32c-0.03,0.04-0.06,0.09-0.09,0.13c0-0.05,0-0.1-0.01-0.15l0.2-2.56c0.24-0.74-0.42-1.05-0.42-1.05
				s-0.66,0.31-0.42,1.05l0.2,2.56c-0.01,0.06-0.01,0.1-0.01,0.15c-0.03-0.04-0.05-0.08-0.09-0.13l-1.11-2.32
				c-0.16-0.76-0.89-0.69-0.89-0.69s-0.42,0.6,0.16,1.12l1.46,2.12c0.02,0.05,0.04,0.09,0.07,0.14c-0.05-0.02-0.09-0.05-0.14-0.07
				L95.75,129c-0.52-0.58-1.12-0.16-1.12-0.16s-0.07,0.73,0.69,0.89l2.32,1.11c0.04,0.03,0.09,0.06,0.13,0.09
				c-0.05,0-0.1,0-0.15,0.01l-2.56-0.2c-0.74-0.24-1.05,0.42-1.05,0.42s0.31,0.66,1.05,0.42l2.56-0.2c0.06,0.01,0.1,0.01,0.15,0.01
				c-0.04,0.03-0.08,0.05-0.13,0.09l-2.32,1.11c-0.76,0.16-0.69,0.89-0.69,0.89s0.6,0.42,1.12-0.16l2.12-1.46
				c0.05-0.02,0.09-0.04,0.14-0.07c-0.02,0.05-0.05,0.09-0.07,0.14l-1.46,2.12c-0.58,0.52-0.16,1.12-0.16,1.12s0.73,0.07,0.89-0.69
				l1.11-2.32c0.03-0.04,0.06-0.09,0.09-0.13c0,0.05,0,0.1,0.01,0.15l-0.2,2.56c-0.24,0.74,0.42,1.05,0.42,1.05s0.66-0.31,0.42-1.05
				l-0.2-2.56c0.01-0.06,0.01-0.1,0.01-0.15c0.03,0.04,0.05,0.08,0.09,0.13l1.11,2.32c0.16,0.76,0.89,0.69,0.89,0.69
				s0.42-0.6-0.16-1.12l-1.46-2.12c-0.02-0.05-0.04-0.09-0.07-0.14c0.05,0.02,0.09,0.05,0.14,0.07l2.12,1.46
				c0.52,0.58,1.12,0.16,1.12,0.16s0.07-0.73-0.69-0.89l-2.32-1.11c-0.04-0.03-0.09-0.06-0.13-0.09c0.05,0,0.1,0,0.15-0.01
				L102.24,131.59z"/>
		</g>
		<line class="st13" x1="90.42" y1="122.88" x2="106.53" y2="122.88"/>
		<line class="st13" x1="90.42" y1="136.56" x2="106.53" y2="136.56"/>
		<path class="st5" d="M99.54,49.9c6.72,0,12.72-3.03,16.74-7.79c-5.5-4.67-11.56-7.26-17.92-7.26c-5.81,0-11.37,2.16-16.48,6.1
			C85.87,46.37,92.29,49.9,99.54,49.9z"/>
		<g>
			<g>
				<path class="st9" d="M108.75,77.6c1.1,1.07,1.46,2.61,1.68,4.08c0.24,1.65,0.24,3.39-0.09,5.02c-0.6,2.98-2.21,5.7-4.79,7.36
					c-1.62,1.04-0.12,3.64,1.51,2.59c3.31-2.13,5.54-5.62,6.23-9.48c0.67-3.74,0.49-8.87-2.42-11.7
					C109.49,74.14,107.36,76.25,108.75,77.6L108.75,77.6z"/>
			</g>
		</g>
		<g>
			<g>
				<path class="st9" d="M106.58,81.8c0.11,0.22,0.21,0.43,0.31,0.65c0.12,0.26,0.06,0.11,0.16,0.38c0.14,0.39,0.26,0.79,0.32,1.2
					c-0.03-0.22-0.02-0.09-0.01,0.05c0.01,0.09,0.01,0.17,0.01,0.26c0,0.17,0,0.35-0.01,0.52c-0.01,0.15-0.03,0.27,0,0.05
					c-0.01,0.09-0.03,0.17-0.04,0.26c-0.04,0.19-0.08,0.38-0.14,0.57c-0.05,0.17-0.1,0.33-0.17,0.5c-0.01,0.03-0.12,0.28-0.05,0.12
					c0.08-0.18-0.07,0.15-0.09,0.18c-0.17,0.33-0.36,0.66-0.58,0.96c-0.02,0.02-0.18,0.24-0.08,0.11c0.1-0.13-0.07,0.08-0.09,0.1
					c-0.13,0.15-0.26,0.3-0.41,0.44c-0.13,0.12-0.26,0.24-0.39,0.36c0,0-0.3,0.23-0.16,0.13c0.15-0.11-0.18,0.12-0.17,0.11
					c-0.65,0.44-1,1.34-0.54,2.05c0.41,0.64,1.36,1.01,2.05,0.54c1.69-1.16,2.98-2.83,3.56-4.81c0.28-0.96,0.36-1.98,0.23-2.97
					c-0.16-1.17-0.62-2.22-1.13-3.27c-0.35-0.71-1.41-0.95-2.05-0.54C106.39,80.21,106.21,81.04,106.58,81.8L106.58,81.8z"/>
			</g>
		</g>
	</g>
</g>
</svg>
